PathFileType	4	(X/Y/Z)	./resultDataOpenSim/trcMotMarkerGrf/sub06/qtm-03-01.trc
DataRate	CameraRate	NumFrames	NumMarkers	Units	OrigDataRate	OrigDataStartFrame	OrigNumFrames
250.000000	250.000000	9	24	m	250.000000	125	496
Frame#	Time	L.Toe.Tip			R.Toe.Tip			L.Ankle.Lat			R.Ankle.Lat			L.Ankle.Med			R.Ankle.Med			L.Heel			R.Heel			L.Knee.Lat			R.Knee.Lat			L.Knee.Med			R.Knee.Med			L.Thigh.Upper			R.Thigh.Upper			L.ASIS			R.ASIS			V.Sacral			L.Acromium			R.Acromium			C7			L.Elbow			R.Elbow			L.Wrist.Lat			R.Wrist.Lat
		X1	Y1	Z1	X2	Y2	Z2	X3	Y3	Z3	X4	Y4	Z4	X5	Y5	Z5	X6	Y6	Z6	X7	Y7	Z7	X8	Y8	Z8	X9	Y9	Z9	X10	Y10	Z10	X11	Y11	Z11	X12	Y12	Z12	X13	Y13	Z13	X14	Y14	Z14	X15	Y15	Z15	X16	Y16	Z16	X17	Y17	Z17	X18	Y18	Z18	X19	Y19	Z19	X20	Y20	Z20	X21	Y21	Z21	X22	Y22	Z22	X23	Y23	Z23	X24	Y24	Z24

125	0.496	-0.076194242	0.10375584	-0.043313445	-0.7776628	0.035449951	0.12874647	-0.20537448	0.095226411	-0.065972274	-0.9083178	0.070122235	0.14539075	-0.20966468	0.11052718	0.018294936	-0.88309496	0.084595287	0.058276912	-0.25964593	0.039296228	-0.018316547	-0.96487485	0.05151229	0.081472223	-0.32298571	0.44637625	-0.064102701	-0.71883727	0.41137602	0.17546869	-0.34343597	0.42949374	0.058193427	-0.74551746	0.41501411	0.043388479	-0.53635833	0.77126325	-0.11468668	-0.59895516	0.75309924	0.23714003	-0.47694734	0.81092271	-0.059502827	-0.49131602	0.79847932	0.19204636	-0.67139151	0.88799743	0.070150918	-0.55538861	1.286037	-0.12467248	-0.53198744	1.2852956	0.2384195	-0.62214758	1.3253812	0.060559443	-0.67493829	0.99476878	-0.15464278	-0.54228526	0.97596793	0.35332008	-0.6104106	0.76791927	-0.21716121	-0.30729311	0.89624865	0.31772273
126	0.5	-0.066806818	0.10324856	-0.042535823	-0.77757242	0.035437338	0.12872067	-0.19590045	0.093918187	-0.065214097	-0.90779738	0.071010289	0.14516648	-0.2004748	0.1092027	0.018985611	-0.88227261	0.08519713	0.05810198	-0.2499927	0.037652648	-0.017833631	-0.96443525	0.052882662	0.081088579	-0.31527068	0.44441854	-0.063811159	-0.71424862	0.40987814	0.17509579	-0.33589401	0.42751862	0.058579426	-0.73986329	0.41362163	0.042920758	-0.52858971	0.7685796	-0.11474289	-0.59244274	0.75078749	0.23646586	-0.4692202	0.80813157	-0.059532441	-0.48480859	0.79650443	0.19231796	-0.66411276	0.88571362	0.069030608	-0.54911653	1.2838234	-0.12502463	-0.52546803	1.2830616	0.23811962	-0.61567867	1.3231319	0.060263543	-0.66870837	0.99276903	-0.15446976	-0.53448015	0.97360423	0.35311424	-0.60639619	0.76566147	-0.21772406	-0.29935928	0.89509715	0.31683125
127	0.504	-0.057902871	0.10221512	-0.041804697	-0.77744058	0.035439916	0.12869476	-0.18691554	0.092363427	-0.064432537	-0.9072236	0.071997872	0.14498189	-0.19168627	0.10769529	0.019739617	-0.88150534	0.085872269	0.057950018	-0.2409232	0.035917921	-0.017163427	-0.96415206	0.054402911	0.080907523	-0.30754275	0.4423976	-0.063535262	-0.7094794	0.40851886	0.17476882	-0.32828595	0.42556715	0.058928517	-0.73411194	0.4121985	0.04252169	-0.52082426	0.76598297	-0.1147676	-0.58609723	0.74861738	0.23581711	-0.4613478	0.80540503	-0.059514815	-0.47822743	0.79458466	0.19251583	-0.65684578	0.88349224	0.068046022	-0.54289558	1.2817122	-0.12541238	-0.51893276	1.2808809	0.23775335	-0.60921422	1.3208774	0.059945427	-0.66238971	0.99081965	-0.15431023	-0.52671628	0.97130384	0.35283106	-0.6023509	0.76344836	-0.21830898	-0.29149187	0.89386808	0.31593232
128	0.508	-0.049488023	0.10068616	-0.041095908	-0.77731992	0.035452183	0.12868171	-0.17841111	0.090560188	-0.063628891	-0.90660094	0.073095663	0.14484529	-0.18333287	0.10596941	0.020515543	-0.88066763	0.086620336	0.057809581	-0.23240844	0.034053754	-0.016355276	-0.96395963	0.056085565	0.080922514	-0.29980917	0.44031432	-0.063273421	-0.70460151	0.40719929	0.17446039	-0.32062494	0.42364529	0.059236876	-0.72822164	0.41072519	0.042164285	-0.5130397	0.76349587	-0.1147703	-0.57993284	0.74663015	0.23521035	-0.45332914	0.80276668	-0.059448151	-0.47158526	0.79271034	0.19266033	-0.64956906	0.88133081	0.067158816	-0.53670733	1.2796876	-0.12584371	-0.51237994	1.2787426	0.2373308	-0.60275292	1.3186165	0.059602657	-0.65599461	0.98891858	-0.15416402	-0.51898045	0.9690641	0.35246171	-0.59841966	0.76125305	-0.21898657	-0.28370841	0.89256882	0.31503884
129	0.512	-0.041568503	0.098699951	-0.040372732	-0.77721774	0.035469105	0.12867998	-0.1703867	0.088503708	-0.062813996	-0.90592244	0.074307347	0.14476056	-0.17543776	0.104004	0.021296834	-0.87970733	0.087460238	0.057699258	-0.22444677	0.032033801	-0.015497721	-0.96365278	0.057924521	0.080995775	-0.29208456	0.43817872	-0.063035327	-0.69962001	0.4058803	0.17417605	-0.31292237	0.42175947	0.059499708	-0.72218513	0.40920999	0.041827408	-0.50517035	0.76113281	-0.11478083	-0.57386681	0.74479163	0.23460559	-0.4452301	0.80024218	-0.059330664	-0.46487853	0.79087696	0.19277502	-0.64208101	0.87912617	0.066076467	-0.5304911	1.2776944	-0.126299	-0.50580293	1.2766413	0.23686221	-0.59629255	1.3163468	0.059228511	-0.64953475	0.98706428	-0.15403184	-0.51128596	0.96688573	0.35201049	-0.59452977	0.7590882	-0.21973147	-0.27601022	0.89120248	0.31415451
130	0.516	-0.03415042	0.096294999	-0.0395937	-0.77712632	0.035479093	0.12868734	-0.16284851	0.086194569	-0.061998865	-0.9051688	0.075628888	0.14473066	-0.16801597	0.10179492	0.022084206	-0.87866337	0.088411292	0.057654242	-0.21704535	0.029838868	-0.014645003	-0.96313939	0.059930665	0.081041286	-0.28437399	0.43600377	-0.06283479	-0.6945231	0.40456122	0.17392085	-0.3051919	0.41991223	0.059708175	-0.71604107	0.40768155	0.041502942	-0.49713407	0.75889451	-0.11483194	-0.56779131	0.74303684	0.23397982	-0.43709973	0.79785096	-0.059161663	-0.45809101	0.78908823	0.19287386	-0.63410768	0.87674334	0.06447162	-0.5241826	1.2756891	-0.12675887	-0.49919661	1.2745749	0.236353	-0.58982474	1.3140709	0.058816518	-0.64301392	0.98525052	-0.15392198	-0.50367025	0.96477187	0.35148917	-0.59044578	0.75698733	-0.2204586	-0.26839132	0.88976694	0.31327625
131	0.52	-0.027232002	0.09351113	-0.038729311	-0.77705052	0.035460004	0.12870773	-0.15579877	0.083641549	-0.061186727	-0.90432487	0.077049432	0.14476022	-0.16107436	0.099344224	0.022878146	-0.87757056	0.089482232	0.057692502	-0.2102114	0.027457406	-0.013818223	-0.96248474	0.0621266	0.08108193	-0.27667296	0.4338024	-0.06267424	-0.68930335	0.40324798	0.17369888	-0.29744466	0.41810206	0.059851448	-0.7098353	0.40614881	0.04118289	-0.48891761	0.75676951	-0.1149328	-0.56163583	0.74132084	0.23334175	-0.42892172	0.79560213	-0.058943814	-0.45121316	0.78735007	0.19294983	-0.62557496	0.874167	0.062342081	-0.5177478	1.2736655	-0.127225	-0.4925594	1.2725428	0.23580623	-0.58332955	1.3117937	0.058364425	-0.63643912	0.9834641	-0.15384976	-0.49617599	0.96272791	0.35091211	-0.58601916	0.7549617	-0.22112247	-0.26084969	0.88826037	0.31240023
132	0.524	-0.020800619	0.090387643	-0.037782225	-0.77699808	0.035396346	0.12874581	-0.14923334	0.080856381	-0.060376865	-0.90338533	0.078557778	0.14485503	-0.1546117	0.096658296	0.023670857	-0.87642894	0.090676917	0.057809842	-0.20394576	0.024894203	-0.013017661	-0.9617556	0.064520874	0.081168554	-0.26898206	0.43158739	-0.062543582	-0.68393585	0.40194551	0.17352478	-0.28968585	0.41632917	0.05992234	-0.70357712	0.40459364	0.040864099	-0.48058922	0.75475019	-0.11507314	-0.55537611	0.73962816	0.23270703	-0.42066527	0.79349782	-0.058682542	-0.44425387	0.78565885	0.19298655	-0.61671204	0.87153519	0.060030635	-0.51118203	1.2716369	-0.12771436	-0.4859001	1.2705492	0.23523079	-0.57678606	1.3095183	0.057872429	-0.6298263	0.98169101	-0.15382772	-0.4888168	0.96075542	0.35028269	-0.5813326	0.75298714	-0.22176126	-0.25338292	0.88668123	0.31152189
133	0.528	-0.014837467	0.086955707	-0.036783979	-0.77694746	0.035307383	0.12879779	-0.14314278	0.07785078	-0.059571724	-0.90234825	0.080146478	0.14501728	-0.14861299	0.093753776	0.024455538	-0.8752175	0.091998882	0.058000113	-0.19823535	0.022169767	-0.012228585	-0.96095894	0.067112297	0.081341283	-0.26131203	0.42936769	-0.0624373	-0.67838875	0.40065751	0.17341147	-0.28191497	0.41459889	0.059924125	-0.697237	0.40299693	0.040568218	-0.47219773	0.75284133	-0.11524552	-0.54901133	0.73795673	0.23208135	-0.41232568	0.79153843	-0.058382052	-0.43723492	0.78399472	0.19299182	-0.60778315	0.86896964	0.057769392	-0.5044914	1.2696163	-0.12824545	-0.47925609	1.2686023	0.23464209	-0.57018595	1.3072576	0.057333768	-0.62317944	0.97992543	-0.15385527	-0.48156856	0.95884587	0.34959224	-0.57653231	0.75103695	-0.22242469	-0.24598585	0.88502826	0.31063919
